<mxfile host="Electron" agent="Mozilla/5.0 (Macintosh; Intel Mac OS X 10_15_7) AppleWebKit/537.36 (KHTML, like Gecko) draw.io/26.1.1 Chrome/132.0.6834.210 Electron/34.3.3 Safari/537.36" version="26.1.1">
  <diagram name="Page-1" id="LP5JoptdU2UmPDI5h0zX">
    <mxGraphModel dx="2170" dy="671" grid="1" gridSize="10" guides="1" tooltips="1" connect="1" arrows="1" fold="1" page="1" pageScale="1" pageWidth="850" pageHeight="1100" math="0" shadow="0">
      <root>
        <mxCell id="0" />
        <mxCell id="1" parent="0" />
        <mxCell id="yLifE5YO-nSygOmaEVbM-1" value="&lt;div data-message-id=&quot;spaces/gK9mNLdlKFYB/messages/1746170408629279&quot; style=&quot;caret-color: rgba(0, 0, 0, 0.87); color: rgba(0, 0, 0, 0.87); font-family: &amp;quot;Google Sans&amp;quot;; font-size: 12px; font-style: normal; font-variant-caps: normal; font-weight: 400; letter-spacing: normal; orphans: auto; text-align: left; text-indent: 0px; text-transform: none; white-space: normal; widows: auto; word-spacing: 0px; -webkit-text-stroke-width: 0px; text-decoration: none;&quot;&gt;&lt;div class=&quot;jO4O1&quot; style=&quot;border-radius: 0.25rem;&quot;&gt;&lt;div class=&quot;ptNLrf&quot; style=&quot;color: var(--gm3-sys-color-on-surface,#1f1f1f); font-family: &amp;quot;Google Sans&amp;quot;; font-size: 0.8125rem; line-height: 1.25rem; padding-left: 1rem; padding-right: 1rem; position: relative; white-space: pre-wrap; overflow-wrap: break-word;&quot;&gt;&lt;div data-is-tv=&quot;false&quot;&gt;&lt;p style=&quot;caret-color: rgb(0, 0, 0); color: rgb(0, 0, 0); white-space-collapse: collapse;&quot; data-end=&quot;88&quot; data-start=&quot;0&quot;&gt;The Faculty of Information Technology needs to develop a project management application:&lt;/p&gt;&lt;p style=&quot;caret-color: rgb(0, 0, 0); color: rgb(0, 0, 0); white-space-collapse: collapse;&quot; data-end=&quot;609&quot; data-start=&quot;90&quot;&gt;Each semester, lecturers in the faculty will propose project topics for either the Programming Internship Project or the Specialized Project. Each project topic will have a project code, project title, semester, project type (Programming Internship or Specialized Project), the number of participating students (minimum 1 and maximum 3), and a start date. Lecturer information includes lecturer ID, full name, and email. Each lecturer can propose multiple project topics, and each project topic belongs to one lecturer.&lt;/p&gt;&lt;p style=&quot;caret-color: rgb(0, 0, 0); color: rgb(0, 0, 0); white-space-collapse: collapse;&quot; data-end=&quot;896&quot; data-start=&quot;611&quot;&gt;Additionally, each project topic will consist of multiple tasks. Task information includes task number, task name, and duration (e.g., 3 days or 5 days, etc.). A task is entirely dependent on the project topicâ€”if the project exists, the task exists; otherwise, the task does not exist.&lt;/p&gt;&lt;p style=&quot;caret-color: rgb(0, 0, 0); color: rgb(0, 0, 0); white-space-collapse: collapse;&quot; data-is-only-node=&quot;&quot; data-is-last-node=&quot;&quot; data-end=&quot;1361&quot; data-start=&quot;898&quot;&gt;One week before the semester starts, the faculty will release a list of project topics for students to register. Each project topic can accept a maximum of 3 students. Student information includes student ID, full name, major, and email. When participating in a project, students will perform multiple tasks, and each task may be carried out by 1 to 3 students. Upon completion of a task, the students involved will receive a grade and a comment as an evaluation.&lt;/p&gt;&lt;/div&gt;&lt;/div&gt;&lt;/div&gt;&lt;/div&gt;" style="text;whiteSpace=wrap;html=1;" parent="1" vertex="1">
          <mxGeometry x="190" y="20" width="560" height="320" as="geometry" />
        </mxCell>
        <mxCell id="yLifE5YO-nSygOmaEVbM-2" value="PROJECT" style="rounded=0;whiteSpace=wrap;html=1;" parent="1" vertex="1">
          <mxGeometry x="280" y="510" width="145" height="40" as="geometry" />
        </mxCell>
        <mxCell id="yLifE5YO-nSygOmaEVbM-3" value="" style="endArrow=none;html=1;rounded=0;" parent="1" target="yLifE5YO-nSygOmaEVbM-4" edge="1">
          <mxGeometry width="50" height="50" relative="1" as="geometry">
            <mxPoint x="320" y="510" as="sourcePoint" />
            <mxPoint x="280" y="460" as="targetPoint" />
          </mxGeometry>
        </mxCell>
        <mxCell id="yLifE5YO-nSygOmaEVbM-4" value="&lt;u&gt;ID&lt;/u&gt;" style="ellipse;whiteSpace=wrap;html=1;" parent="1" vertex="1">
          <mxGeometry x="180" y="440" width="100" height="40" as="geometry" />
        </mxCell>
        <mxCell id="yLifE5YO-nSygOmaEVbM-6" value="Name" style="ellipse;whiteSpace=wrap;html=1;" parent="1" vertex="1">
          <mxGeometry x="280" y="425" width="100" height="40" as="geometry" />
        </mxCell>
        <mxCell id="yLifE5YO-nSygOmaEVbM-7" value="Semester" style="ellipse;whiteSpace=wrap;html=1;" parent="1" vertex="1">
          <mxGeometry x="390" y="420" width="100" height="40" as="geometry" />
        </mxCell>
        <mxCell id="yLifE5YO-nSygOmaEVbM-8" value="Type" style="ellipse;whiteSpace=wrap;html=1;" parent="1" vertex="1">
          <mxGeometry x="460" y="465" width="100" height="40" as="geometry" />
        </mxCell>
        <mxCell id="yLifE5YO-nSygOmaEVbM-10" value="" style="endArrow=none;html=1;rounded=0;exitX=0.5;exitY=0;exitDx=0;exitDy=0;" parent="1" source="yLifE5YO-nSygOmaEVbM-2" edge="1">
          <mxGeometry width="50" height="50" relative="1" as="geometry">
            <mxPoint x="290" y="515" as="sourcePoint" />
            <mxPoint x="340" y="465" as="targetPoint" />
          </mxGeometry>
        </mxCell>
        <mxCell id="yLifE5YO-nSygOmaEVbM-11" value="" style="endArrow=none;html=1;rounded=0;" parent="1" edge="1">
          <mxGeometry width="50" height="50" relative="1" as="geometry">
            <mxPoint x="380" y="510" as="sourcePoint" />
            <mxPoint x="430" y="460" as="targetPoint" />
          </mxGeometry>
        </mxCell>
        <mxCell id="yLifE5YO-nSygOmaEVbM-12" value="" style="endArrow=none;html=1;rounded=0;" parent="1" edge="1">
          <mxGeometry width="50" height="50" relative="1" as="geometry">
            <mxPoint x="400" y="510" as="sourcePoint" />
            <mxPoint x="460" y="490" as="targetPoint" />
          </mxGeometry>
        </mxCell>
        <mxCell id="yLifE5YO-nSygOmaEVbM-15" value="INSTRUCTOR" style="rounded=0;whiteSpace=wrap;html=1;" parent="1" vertex="1">
          <mxGeometry x="-70" y="510" width="145" height="40" as="geometry" />
        </mxCell>
        <mxCell id="yLifE5YO-nSygOmaEVbM-16" value="&lt;u&gt;ID&lt;/u&gt;" style="ellipse;whiteSpace=wrap;html=1;" parent="1" vertex="1">
          <mxGeometry x="-190" y="440" width="100" height="40" as="geometry" />
        </mxCell>
        <mxCell id="yLifE5YO-nSygOmaEVbM-17" value="Name" style="ellipse;whiteSpace=wrap;html=1;" parent="1" vertex="1">
          <mxGeometry x="-60" y="440" width="100" height="40" as="geometry" />
        </mxCell>
        <mxCell id="yLifE5YO-nSygOmaEVbM-18" value="Email" style="ellipse;whiteSpace=wrap;html=1;" parent="1" vertex="1">
          <mxGeometry x="50" y="450" width="100" height="40" as="geometry" />
        </mxCell>
        <mxCell id="yLifE5YO-nSygOmaEVbM-19" value="" style="endArrow=none;html=1;rounded=0;entryX=0.25;entryY=0;entryDx=0;entryDy=0;exitX=0.5;exitY=1;exitDx=0;exitDy=0;" parent="1" source="yLifE5YO-nSygOmaEVbM-16" target="yLifE5YO-nSygOmaEVbM-15" edge="1">
          <mxGeometry width="50" height="50" relative="1" as="geometry">
            <mxPoint x="-140" y="505" as="sourcePoint" />
            <mxPoint x="-90" y="455" as="targetPoint" />
          </mxGeometry>
        </mxCell>
        <mxCell id="yLifE5YO-nSygOmaEVbM-20" value="" style="endArrow=none;html=1;rounded=0;exitX=0.5;exitY=0;exitDx=0;exitDy=0;" parent="1" source="yLifE5YO-nSygOmaEVbM-15" edge="1">
          <mxGeometry width="50" height="50" relative="1" as="geometry">
            <mxPoint x="-50" y="530" as="sourcePoint" />
            <mxPoint y="480" as="targetPoint" />
          </mxGeometry>
        </mxCell>
        <mxCell id="yLifE5YO-nSygOmaEVbM-21" value="" style="endArrow=none;html=1;rounded=0;entryX=0.5;entryY=1;entryDx=0;entryDy=0;" parent="1" target="yLifE5YO-nSygOmaEVbM-18" edge="1">
          <mxGeometry width="50" height="50" relative="1" as="geometry">
            <mxPoint x="20" y="510" as="sourcePoint" />
            <mxPoint x="70" y="460" as="targetPoint" />
          </mxGeometry>
        </mxCell>
        <mxCell id="yLifE5YO-nSygOmaEVbM-23" value="&lt;u&gt;Number&lt;/u&gt;" style="ellipse;whiteSpace=wrap;html=1;" parent="1" vertex="1">
          <mxGeometry x="200" y="760" width="100" height="40" as="geometry" />
        </mxCell>
        <mxCell id="yLifE5YO-nSygOmaEVbM-24" value="Name" style="ellipse;whiteSpace=wrap;html=1;" parent="1" vertex="1">
          <mxGeometry x="310" y="750" width="100" height="40" as="geometry" />
        </mxCell>
        <mxCell id="yLifE5YO-nSygOmaEVbM-25" value="DayTime" style="ellipse;whiteSpace=wrap;html=1;" parent="1" vertex="1">
          <mxGeometry x="440" y="750" width="100" height="40" as="geometry" />
        </mxCell>
        <mxCell id="yLifE5YO-nSygOmaEVbM-26" value="" style="endArrow=none;html=1;rounded=0;entryX=0;entryY=0;entryDx=0;entryDy=0;" parent="1" source="yLifE5YO-nSygOmaEVbM-22" target="yLifE5YO-nSygOmaEVbM-25" edge="1">
          <mxGeometry width="50" height="50" relative="1" as="geometry">
            <mxPoint x="370" y="700" as="sourcePoint" />
            <mxPoint x="420" y="650" as="targetPoint" />
          </mxGeometry>
        </mxCell>
        <mxCell id="yLifE5YO-nSygOmaEVbM-28" value="" style="endArrow=none;html=1;rounded=0;" parent="1" source="yLifE5YO-nSygOmaEVbM-24" edge="1">
          <mxGeometry width="50" height="50" relative="1" as="geometry">
            <mxPoint x="305" y="750" as="sourcePoint" />
            <mxPoint x="355" y="700" as="targetPoint" />
          </mxGeometry>
        </mxCell>
        <mxCell id="yLifE5YO-nSygOmaEVbM-29" value="" style="endArrow=none;html=1;rounded=0;exitX=0.5;exitY=0;exitDx=0;exitDy=0;" parent="1" source="yLifE5YO-nSygOmaEVbM-23" edge="1">
          <mxGeometry width="50" height="50" relative="1" as="geometry">
            <mxPoint x="280" y="750" as="sourcePoint" />
            <mxPoint x="330" y="700" as="targetPoint" />
          </mxGeometry>
        </mxCell>
        <mxCell id="yLifE5YO-nSygOmaEVbM-30" value="" style="endArrow=none;html=1;rounded=0;exitX=0.5;exitY=1;exitDx=0;exitDy=0;" parent="1" source="yLifE5YO-nSygOmaEVbM-2" target="yLifE5YO-nSygOmaEVbM-31" edge="1">
          <mxGeometry width="50" height="50" relative="1" as="geometry">
            <mxPoint x="340" y="590" as="sourcePoint" />
            <mxPoint x="355" y="550" as="targetPoint" />
          </mxGeometry>
        </mxCell>
        <mxCell id="yLifE5YO-nSygOmaEVbM-31" value="" style="rhombus;whiteSpace=wrap;html=1;" parent="1" vertex="1">
          <mxGeometry x="300" y="580" width="70" height="60" as="geometry" />
        </mxCell>
        <mxCell id="yLifE5YO-nSygOmaEVbM-32" value="" style="endArrow=none;html=1;rounded=0;entryX=0;entryY=0;entryDx=0;entryDy=0;" parent="1" target="yLifE5YO-nSygOmaEVbM-22" edge="1">
          <mxGeometry width="50" height="50" relative="1" as="geometry">
            <mxPoint x="370" y="700" as="sourcePoint" />
            <mxPoint x="465" y="726" as="targetPoint" />
          </mxGeometry>
        </mxCell>
        <mxCell id="yLifE5YO-nSygOmaEVbM-22" value="" style="rounded=0;whiteSpace=wrap;html=1;" parent="1" vertex="1">
          <mxGeometry x="280" y="680" width="145" height="50" as="geometry" />
        </mxCell>
        <mxCell id="yLifE5YO-nSygOmaEVbM-33" value="" style="endArrow=none;html=1;rounded=0;exitX=0.5;exitY=0;exitDx=0;exitDy=0;entryX=0.5;entryY=1;entryDx=0;entryDy=0;" parent="1" source="yLifE5YO-nSygOmaEVbM-22" target="yLifE5YO-nSygOmaEVbM-31" edge="1">
          <mxGeometry width="50" height="50" relative="1" as="geometry">
            <mxPoint x="270" y="690" as="sourcePoint" />
            <mxPoint x="320" y="640" as="targetPoint" />
          </mxGeometry>
        </mxCell>
        <mxCell id="yLifE5YO-nSygOmaEVbM-36" value="" style="shape=table;startSize=0;container=1;collapsible=0;childLayout=tableLayout;" parent="1" vertex="1">
          <mxGeometry x="600" y="620" width="180" height="120" as="geometry" />
        </mxCell>
        <mxCell id="yLifE5YO-nSygOmaEVbM-37" value="" style="shape=tableRow;horizontal=0;startSize=0;swimlaneHead=0;swimlaneBody=0;strokeColor=inherit;top=0;left=0;bottom=0;right=0;collapsible=0;dropTarget=0;fillColor=none;points=[[0,0.5],[1,0.5]];portConstraint=eastwest;" parent="yLifE5YO-nSygOmaEVbM-36" vertex="1">
          <mxGeometry width="180" height="30" as="geometry" />
        </mxCell>
        <mxCell id="yLifE5YO-nSygOmaEVbM-38" value="PROJECT" style="shape=partialRectangle;html=1;whiteSpace=wrap;connectable=0;strokeColor=inherit;overflow=hidden;fillColor=none;top=0;left=0;bottom=0;right=0;pointerEvents=1;" parent="yLifE5YO-nSygOmaEVbM-37" vertex="1">
          <mxGeometry width="90" height="30" as="geometry">
            <mxRectangle width="90" height="30" as="alternateBounds" />
          </mxGeometry>
        </mxCell>
        <mxCell id="yLifE5YO-nSygOmaEVbM-39" value="WORK" style="shape=partialRectangle;html=1;whiteSpace=wrap;connectable=0;strokeColor=inherit;overflow=hidden;fillColor=none;top=0;left=0;bottom=0;right=0;pointerEvents=1;" parent="yLifE5YO-nSygOmaEVbM-37" vertex="1">
          <mxGeometry x="90" width="90" height="30" as="geometry">
            <mxRectangle width="90" height="30" as="alternateBounds" />
          </mxGeometry>
        </mxCell>
        <mxCell id="yLifE5YO-nSygOmaEVbM-40" value="" style="shape=tableRow;horizontal=0;startSize=0;swimlaneHead=0;swimlaneBody=0;strokeColor=inherit;top=0;left=0;bottom=0;right=0;collapsible=0;dropTarget=0;fillColor=none;points=[[0,0.5],[1,0.5]];portConstraint=eastwest;" parent="yLifE5YO-nSygOmaEVbM-36" vertex="1">
          <mxGeometry y="30" width="180" height="30" as="geometry" />
        </mxCell>
        <mxCell id="yLifE5YO-nSygOmaEVbM-41" value="P01" style="shape=partialRectangle;html=1;whiteSpace=wrap;connectable=0;strokeColor=inherit;overflow=hidden;fillColor=none;top=0;left=0;bottom=0;right=0;pointerEvents=1;" parent="yLifE5YO-nSygOmaEVbM-40" vertex="1">
          <mxGeometry width="90" height="30" as="geometry">
            <mxRectangle width="90" height="30" as="alternateBounds" />
          </mxGeometry>
        </mxCell>
        <mxCell id="yLifE5YO-nSygOmaEVbM-42" value="W01" style="shape=partialRectangle;html=1;whiteSpace=wrap;connectable=0;strokeColor=inherit;overflow=hidden;fillColor=none;top=0;left=0;bottom=0;right=0;pointerEvents=1;" parent="yLifE5YO-nSygOmaEVbM-40" vertex="1">
          <mxGeometry x="90" width="90" height="30" as="geometry">
            <mxRectangle width="90" height="30" as="alternateBounds" />
          </mxGeometry>
        </mxCell>
        <mxCell id="yLifE5YO-nSygOmaEVbM-43" style="shape=tableRow;horizontal=0;startSize=0;swimlaneHead=0;swimlaneBody=0;strokeColor=inherit;top=0;left=0;bottom=0;right=0;collapsible=0;dropTarget=0;fillColor=none;points=[[0,0.5],[1,0.5]];portConstraint=eastwest;" parent="yLifE5YO-nSygOmaEVbM-36" vertex="1">
          <mxGeometry y="60" width="180" height="30" as="geometry" />
        </mxCell>
        <mxCell id="yLifE5YO-nSygOmaEVbM-44" value="P01" style="shape=partialRectangle;html=1;whiteSpace=wrap;connectable=0;strokeColor=inherit;overflow=hidden;fillColor=none;top=0;left=0;bottom=0;right=0;pointerEvents=1;" parent="yLifE5YO-nSygOmaEVbM-43" vertex="1">
          <mxGeometry width="90" height="30" as="geometry">
            <mxRectangle width="90" height="30" as="alternateBounds" />
          </mxGeometry>
        </mxCell>
        <mxCell id="yLifE5YO-nSygOmaEVbM-45" value="W02" style="shape=partialRectangle;html=1;whiteSpace=wrap;connectable=0;strokeColor=inherit;overflow=hidden;fillColor=none;top=0;left=0;bottom=0;right=0;pointerEvents=1;" parent="yLifE5YO-nSygOmaEVbM-43" vertex="1">
          <mxGeometry x="90" width="90" height="30" as="geometry">
            <mxRectangle width="90" height="30" as="alternateBounds" />
          </mxGeometry>
        </mxCell>
        <mxCell id="yLifE5YO-nSygOmaEVbM-46" style="shape=tableRow;horizontal=0;startSize=0;swimlaneHead=0;swimlaneBody=0;strokeColor=inherit;top=0;left=0;bottom=0;right=0;collapsible=0;dropTarget=0;fillColor=none;points=[[0,0.5],[1,0.5]];portConstraint=eastwest;" parent="yLifE5YO-nSygOmaEVbM-36" vertex="1">
          <mxGeometry y="90" width="180" height="30" as="geometry" />
        </mxCell>
        <mxCell id="yLifE5YO-nSygOmaEVbM-47" value="P02" style="shape=partialRectangle;html=1;whiteSpace=wrap;connectable=0;strokeColor=inherit;overflow=hidden;fillColor=none;top=0;left=0;bottom=0;right=0;pointerEvents=1;" parent="yLifE5YO-nSygOmaEVbM-46" vertex="1">
          <mxGeometry width="90" height="30" as="geometry">
            <mxRectangle width="90" height="30" as="alternateBounds" />
          </mxGeometry>
        </mxCell>
        <mxCell id="yLifE5YO-nSygOmaEVbM-48" value="W02" style="shape=partialRectangle;html=1;whiteSpace=wrap;connectable=0;strokeColor=inherit;overflow=hidden;fillColor=none;top=0;left=0;bottom=0;right=0;pointerEvents=1;" parent="yLifE5YO-nSygOmaEVbM-46" vertex="1">
          <mxGeometry x="90" width="90" height="30" as="geometry">
            <mxRectangle width="90" height="30" as="alternateBounds" />
          </mxGeometry>
        </mxCell>
        <mxCell id="yLifE5YO-nSygOmaEVbM-50" value="" style="endArrow=none;html=1;rounded=0;exitX=0.559;exitY=0.025;exitDx=0;exitDy=0;entryX=0.614;entryY=0.917;entryDx=0;entryDy=0;exitPerimeter=0;entryPerimeter=0;" parent="1" source="yLifE5YO-nSygOmaEVbM-22" target="yLifE5YO-nSygOmaEVbM-31" edge="1">
          <mxGeometry width="50" height="50" relative="1" as="geometry">
            <mxPoint x="363" y="690" as="sourcePoint" />
            <mxPoint x="345" y="650" as="targetPoint" />
          </mxGeometry>
        </mxCell>
        <mxCell id="yLifE5YO-nSygOmaEVbM-51" value="N" style="text;html=1;align=center;verticalAlign=middle;whiteSpace=wrap;rounded=0;" parent="1" vertex="1">
          <mxGeometry x="340" y="640" width="60" height="30" as="geometry" />
        </mxCell>
        <mxCell id="yLifE5YO-nSygOmaEVbM-52" value="M" style="text;html=1;align=center;verticalAlign=middle;whiteSpace=wrap;rounded=0;" parent="1" vertex="1">
          <mxGeometry x="330" y="560" width="60" height="30" as="geometry" />
        </mxCell>
        <mxCell id="yLifE5YO-nSygOmaEVbM-53" value="GIVES" style="rhombus;whiteSpace=wrap;html=1;" parent="1" vertex="1">
          <mxGeometry x="140" y="500" width="70" height="60" as="geometry" />
        </mxCell>
        <mxCell id="yLifE5YO-nSygOmaEVbM-54" value="" style="endArrow=none;html=1;rounded=0;exitX=1;exitY=0.5;exitDx=0;exitDy=0;" parent="1" source="yLifE5YO-nSygOmaEVbM-15" edge="1">
          <mxGeometry width="50" height="50" relative="1" as="geometry">
            <mxPoint x="290" y="560" as="sourcePoint" />
            <mxPoint x="140" y="529" as="targetPoint" />
          </mxGeometry>
        </mxCell>
        <mxCell id="yLifE5YO-nSygOmaEVbM-55" value="" style="endArrow=none;html=1;rounded=0;entryX=0;entryY=0.5;entryDx=0;entryDy=0;" parent="1" target="yLifE5YO-nSygOmaEVbM-2" edge="1">
          <mxGeometry width="50" height="50" relative="1" as="geometry">
            <mxPoint x="210" y="530" as="sourcePoint" />
            <mxPoint x="260" y="480" as="targetPoint" />
          </mxGeometry>
        </mxCell>
        <mxCell id="yLifE5YO-nSygOmaEVbM-56" value="1" style="text;html=1;align=center;verticalAlign=middle;whiteSpace=wrap;rounded=0;" parent="1" vertex="1">
          <mxGeometry x="80" y="500" width="60" height="30" as="geometry" />
        </mxCell>
        <mxCell id="yLifE5YO-nSygOmaEVbM-57" value="N" style="text;html=1;align=center;verticalAlign=middle;whiteSpace=wrap;rounded=0;" parent="1" vertex="1">
          <mxGeometry x="210" y="500" width="60" height="30" as="geometry" />
        </mxCell>
        <mxCell id="yLifE5YO-nSygOmaEVbM-58" value="" style="shape=table;startSize=0;container=1;collapsible=0;childLayout=tableLayout;" parent="1" vertex="1">
          <mxGeometry x="-320" y="555" width="180" height="150" as="geometry" />
        </mxCell>
        <mxCell id="yLifE5YO-nSygOmaEVbM-59" value="" style="shape=tableRow;horizontal=0;startSize=0;swimlaneHead=0;swimlaneBody=0;strokeColor=inherit;top=0;left=0;bottom=0;right=0;collapsible=0;dropTarget=0;fillColor=none;points=[[0,0.5],[1,0.5]];portConstraint=eastwest;" parent="yLifE5YO-nSygOmaEVbM-58" vertex="1">
          <mxGeometry width="180" height="30" as="geometry" />
        </mxCell>
        <mxCell id="yLifE5YO-nSygOmaEVbM-60" value="INSTRUCTOR" style="shape=partialRectangle;html=1;whiteSpace=wrap;connectable=0;strokeColor=inherit;overflow=hidden;fillColor=none;top=0;left=0;bottom=0;right=0;pointerEvents=1;" parent="yLifE5YO-nSygOmaEVbM-59" vertex="1">
          <mxGeometry width="90" height="30" as="geometry">
            <mxRectangle width="90" height="30" as="alternateBounds" />
          </mxGeometry>
        </mxCell>
        <mxCell id="yLifE5YO-nSygOmaEVbM-61" value="PROJECT" style="shape=partialRectangle;html=1;whiteSpace=wrap;connectable=0;strokeColor=inherit;overflow=hidden;fillColor=none;top=0;left=0;bottom=0;right=0;pointerEvents=1;" parent="yLifE5YO-nSygOmaEVbM-59" vertex="1">
          <mxGeometry x="90" width="90" height="30" as="geometry">
            <mxRectangle width="90" height="30" as="alternateBounds" />
          </mxGeometry>
        </mxCell>
        <mxCell id="yLifE5YO-nSygOmaEVbM-62" value="" style="shape=tableRow;horizontal=0;startSize=0;swimlaneHead=0;swimlaneBody=0;strokeColor=inherit;top=0;left=0;bottom=0;right=0;collapsible=0;dropTarget=0;fillColor=none;points=[[0,0.5],[1,0.5]];portConstraint=eastwest;" parent="yLifE5YO-nSygOmaEVbM-58" vertex="1">
          <mxGeometry y="30" width="180" height="30" as="geometry" />
        </mxCell>
        <mxCell id="yLifE5YO-nSygOmaEVbM-63" value="IN01" style="shape=partialRectangle;html=1;whiteSpace=wrap;connectable=0;strokeColor=inherit;overflow=hidden;fillColor=none;top=0;left=0;bottom=0;right=0;pointerEvents=1;" parent="yLifE5YO-nSygOmaEVbM-62" vertex="1">
          <mxGeometry width="90" height="30" as="geometry">
            <mxRectangle width="90" height="30" as="alternateBounds" />
          </mxGeometry>
        </mxCell>
        <mxCell id="yLifE5YO-nSygOmaEVbM-64" value="P01" style="shape=partialRectangle;html=1;whiteSpace=wrap;connectable=0;strokeColor=inherit;overflow=hidden;fillColor=none;top=0;left=0;bottom=0;right=0;pointerEvents=1;" parent="yLifE5YO-nSygOmaEVbM-62" vertex="1">
          <mxGeometry x="90" width="90" height="30" as="geometry">
            <mxRectangle width="90" height="30" as="alternateBounds" />
          </mxGeometry>
        </mxCell>
        <mxCell id="yLifE5YO-nSygOmaEVbM-65" style="shape=tableRow;horizontal=0;startSize=0;swimlaneHead=0;swimlaneBody=0;strokeColor=inherit;top=0;left=0;bottom=0;right=0;collapsible=0;dropTarget=0;fillColor=none;points=[[0,0.5],[1,0.5]];portConstraint=eastwest;" parent="yLifE5YO-nSygOmaEVbM-58" vertex="1">
          <mxGeometry y="60" width="180" height="30" as="geometry" />
        </mxCell>
        <mxCell id="yLifE5YO-nSygOmaEVbM-66" value="IN02" style="shape=partialRectangle;html=1;whiteSpace=wrap;connectable=0;strokeColor=inherit;overflow=hidden;fillColor=none;top=0;left=0;bottom=0;right=0;pointerEvents=1;" parent="yLifE5YO-nSygOmaEVbM-65" vertex="1">
          <mxGeometry width="90" height="30" as="geometry">
            <mxRectangle width="90" height="30" as="alternateBounds" />
          </mxGeometry>
        </mxCell>
        <mxCell id="yLifE5YO-nSygOmaEVbM-67" value="P02" style="shape=partialRectangle;html=1;whiteSpace=wrap;connectable=0;strokeColor=inherit;overflow=hidden;fillColor=none;top=0;left=0;bottom=0;right=0;pointerEvents=1;" parent="yLifE5YO-nSygOmaEVbM-65" vertex="1">
          <mxGeometry x="90" width="90" height="30" as="geometry">
            <mxRectangle width="90" height="30" as="alternateBounds" />
          </mxGeometry>
        </mxCell>
        <mxCell id="yLifE5YO-nSygOmaEVbM-68" style="shape=tableRow;horizontal=0;startSize=0;swimlaneHead=0;swimlaneBody=0;strokeColor=inherit;top=0;left=0;bottom=0;right=0;collapsible=0;dropTarget=0;fillColor=none;points=[[0,0.5],[1,0.5]];portConstraint=eastwest;" parent="yLifE5YO-nSygOmaEVbM-58" vertex="1">
          <mxGeometry y="90" width="180" height="30" as="geometry" />
        </mxCell>
        <mxCell id="yLifE5YO-nSygOmaEVbM-69" value="IN02" style="shape=partialRectangle;html=1;whiteSpace=wrap;connectable=0;strokeColor=inherit;overflow=hidden;fillColor=none;top=0;left=0;bottom=0;right=0;pointerEvents=1;" parent="yLifE5YO-nSygOmaEVbM-68" vertex="1">
          <mxGeometry width="90" height="30" as="geometry">
            <mxRectangle width="90" height="30" as="alternateBounds" />
          </mxGeometry>
        </mxCell>
        <mxCell id="yLifE5YO-nSygOmaEVbM-70" value="P03" style="shape=partialRectangle;html=1;whiteSpace=wrap;connectable=0;strokeColor=inherit;overflow=hidden;fillColor=none;top=0;left=0;bottom=0;right=0;pointerEvents=1;" parent="yLifE5YO-nSygOmaEVbM-68" vertex="1">
          <mxGeometry x="90" width="90" height="30" as="geometry">
            <mxRectangle width="90" height="30" as="alternateBounds" />
          </mxGeometry>
        </mxCell>
        <mxCell id="yLifE5YO-nSygOmaEVbM-71" style="shape=tableRow;horizontal=0;startSize=0;swimlaneHead=0;swimlaneBody=0;strokeColor=inherit;top=0;left=0;bottom=0;right=0;collapsible=0;dropTarget=0;fillColor=none;points=[[0,0.5],[1,0.5]];portConstraint=eastwest;" parent="yLifE5YO-nSygOmaEVbM-58" vertex="1">
          <mxGeometry y="120" width="180" height="30" as="geometry" />
        </mxCell>
        <mxCell id="yLifE5YO-nSygOmaEVbM-72" value="IN03" style="shape=partialRectangle;html=1;whiteSpace=wrap;connectable=0;strokeColor=inherit;overflow=hidden;fillColor=none;top=0;left=0;bottom=0;right=0;pointerEvents=1;" parent="yLifE5YO-nSygOmaEVbM-71" vertex="1">
          <mxGeometry width="90" height="30" as="geometry">
            <mxRectangle width="90" height="30" as="alternateBounds" />
          </mxGeometry>
        </mxCell>
        <mxCell id="yLifE5YO-nSygOmaEVbM-73" value="P04" style="shape=partialRectangle;html=1;whiteSpace=wrap;connectable=0;strokeColor=inherit;overflow=hidden;fillColor=none;top=0;left=0;bottom=0;right=0;pointerEvents=1;" parent="yLifE5YO-nSygOmaEVbM-71" vertex="1">
          <mxGeometry x="90" width="90" height="30" as="geometry">
            <mxRectangle width="90" height="30" as="alternateBounds" />
          </mxGeometry>
        </mxCell>
        <mxCell id="yLifE5YO-nSygOmaEVbM-74" value="STUDENT" style="rounded=0;whiteSpace=wrap;html=1;" parent="1" vertex="1">
          <mxGeometry x="-50" y="700" width="145" height="40" as="geometry" />
        </mxCell>
        <mxCell id="yLifE5YO-nSygOmaEVbM-75" value="&lt;u&gt;ID&lt;/u&gt;" style="ellipse;whiteSpace=wrap;html=1;" parent="1" vertex="1">
          <mxGeometry x="-230" y="730" width="100" height="40" as="geometry" />
        </mxCell>
        <mxCell id="yLifE5YO-nSygOmaEVbM-76" value="Name" style="ellipse;whiteSpace=wrap;html=1;" parent="1" vertex="1">
          <mxGeometry x="-190" y="780" width="100" height="40" as="geometry" />
        </mxCell>
        <mxCell id="yLifE5YO-nSygOmaEVbM-77" value="Email" style="ellipse;whiteSpace=wrap;html=1;" parent="1" vertex="1">
          <mxGeometry x="-150" y="830" width="100" height="40" as="geometry" />
        </mxCell>
        <mxCell id="yLifE5YO-nSygOmaEVbM-78" value="" style="endArrow=none;html=1;rounded=0;exitX=0.5;exitY=0;exitDx=0;exitDy=0;entryX=0;entryY=0.5;entryDx=0;entryDy=0;" parent="1" source="yLifE5YO-nSygOmaEVbM-75" target="yLifE5YO-nSygOmaEVbM-74" edge="1">
          <mxGeometry width="50" height="50" relative="1" as="geometry">
            <mxPoint x="-80" y="780" as="sourcePoint" />
            <mxPoint y="740" as="targetPoint" />
          </mxGeometry>
        </mxCell>
        <mxCell id="yLifE5YO-nSygOmaEVbM-79" value="" style="endArrow=none;html=1;rounded=0;exitX=0.5;exitY=0;exitDx=0;exitDy=0;entryX=0.25;entryY=1;entryDx=0;entryDy=0;" parent="1" source="yLifE5YO-nSygOmaEVbM-76" target="yLifE5YO-nSygOmaEVbM-74" edge="1">
          <mxGeometry width="50" height="50" relative="1" as="geometry">
            <mxPoint x="-10" y="790" as="sourcePoint" />
            <mxPoint x="40" y="740" as="targetPoint" />
          </mxGeometry>
        </mxCell>
        <mxCell id="yLifE5YO-nSygOmaEVbM-80" value="" style="endArrow=none;html=1;rounded=0;exitX=0.5;exitY=0;exitDx=0;exitDy=0;entryX=0.5;entryY=1;entryDx=0;entryDy=0;" parent="1" source="yLifE5YO-nSygOmaEVbM-77" target="yLifE5YO-nSygOmaEVbM-74" edge="1">
          <mxGeometry width="50" height="50" relative="1" as="geometry">
            <mxPoint x="30" y="790" as="sourcePoint" />
            <mxPoint x="80" y="740" as="targetPoint" />
          </mxGeometry>
        </mxCell>
        <mxCell id="yLifE5YO-nSygOmaEVbM-81" value="Major" style="ellipse;whiteSpace=wrap;html=1;" parent="1" vertex="1">
          <mxGeometry x="-60" y="800" width="100" height="40" as="geometry" />
        </mxCell>
        <mxCell id="yLifE5YO-nSygOmaEVbM-82" value="" style="endArrow=none;html=1;rounded=0;exitX=0.5;exitY=0;exitDx=0;exitDy=0;entryX=0.615;entryY=1.009;entryDx=0;entryDy=0;entryPerimeter=0;" parent="1" source="yLifE5YO-nSygOmaEVbM-81" target="yLifE5YO-nSygOmaEVbM-74" edge="1">
          <mxGeometry width="50" height="50" relative="1" as="geometry">
            <mxPoint x="10" y="790" as="sourcePoint" />
            <mxPoint x="60" y="740" as="targetPoint" />
          </mxGeometry>
        </mxCell>
        <mxCell id="yLifE5YO-nSygOmaEVbM-83" value="" style="endArrow=none;html=1;rounded=0;entryX=0.045;entryY=0.592;entryDx=0;entryDy=0;entryPerimeter=0;" parent="1" target="yLifE5YO-nSygOmaEVbM-84" edge="1">
          <mxGeometry width="50" height="50" relative="1" as="geometry">
            <mxPoint x="25" y="700" as="sourcePoint" />
            <mxPoint x="75" y="650" as="targetPoint" />
          </mxGeometry>
        </mxCell>
        <mxCell id="yLifE5YO-nSygOmaEVbM-84" value="ACCEPTS" style="rhombus;whiteSpace=wrap;html=1;" parent="1" vertex="1">
          <mxGeometry x="110" y="600" width="80" height="60" as="geometry" />
        </mxCell>
        <mxCell id="yLifE5YO-nSygOmaEVbM-85" value="" style="endArrow=none;html=1;rounded=0;entryX=0.25;entryY=1;entryDx=0;entryDy=0;" parent="1" target="yLifE5YO-nSygOmaEVbM-2" edge="1">
          <mxGeometry width="50" height="50" relative="1" as="geometry">
            <mxPoint x="160" y="610" as="sourcePoint" />
            <mxPoint x="210" y="560" as="targetPoint" />
          </mxGeometry>
        </mxCell>
        <mxCell id="yLifE5YO-nSygOmaEVbM-86" value="" style="endArrow=none;html=1;rounded=0;entryX=0;entryY=0.75;entryDx=0;entryDy=0;" parent="1" target="yLifE5YO-nSygOmaEVbM-2" edge="1">
          <mxGeometry width="50" height="50" relative="1" as="geometry">
            <mxPoint x="200" y="540" as="sourcePoint" />
            <mxPoint x="250" y="490" as="targetPoint" />
          </mxGeometry>
        </mxCell>
        <mxCell id="yLifE5YO-nSygOmaEVbM-87" value="" style="shape=table;startSize=0;container=1;collapsible=0;childLayout=tableLayout;" parent="1" vertex="1">
          <mxGeometry x="85" y="900" width="180" height="150" as="geometry" />
        </mxCell>
        <mxCell id="yLifE5YO-nSygOmaEVbM-88" value="" style="shape=tableRow;horizontal=0;startSize=0;swimlaneHead=0;swimlaneBody=0;strokeColor=inherit;top=0;left=0;bottom=0;right=0;collapsible=0;dropTarget=0;fillColor=none;points=[[0,0.5],[1,0.5]];portConstraint=eastwest;" parent="yLifE5YO-nSygOmaEVbM-87" vertex="1">
          <mxGeometry width="180" height="30" as="geometry" />
        </mxCell>
        <mxCell id="yLifE5YO-nSygOmaEVbM-89" value="PROJECT" style="shape=partialRectangle;html=1;whiteSpace=wrap;connectable=0;strokeColor=inherit;overflow=hidden;fillColor=none;top=0;left=0;bottom=0;right=0;pointerEvents=1;" parent="yLifE5YO-nSygOmaEVbM-88" vertex="1">
          <mxGeometry width="90" height="30" as="geometry">
            <mxRectangle width="90" height="30" as="alternateBounds" />
          </mxGeometry>
        </mxCell>
        <mxCell id="yLifE5YO-nSygOmaEVbM-90" value="STUDENT" style="shape=partialRectangle;html=1;whiteSpace=wrap;connectable=0;strokeColor=inherit;overflow=hidden;fillColor=none;top=0;left=0;bottom=0;right=0;pointerEvents=1;" parent="yLifE5YO-nSygOmaEVbM-88" vertex="1">
          <mxGeometry x="90" width="90" height="30" as="geometry">
            <mxRectangle width="90" height="30" as="alternateBounds" />
          </mxGeometry>
        </mxCell>
        <mxCell id="yLifE5YO-nSygOmaEVbM-91" value="" style="shape=tableRow;horizontal=0;startSize=0;swimlaneHead=0;swimlaneBody=0;strokeColor=inherit;top=0;left=0;bottom=0;right=0;collapsible=0;dropTarget=0;fillColor=none;points=[[0,0.5],[1,0.5]];portConstraint=eastwest;" parent="yLifE5YO-nSygOmaEVbM-87" vertex="1">
          <mxGeometry y="30" width="180" height="30" as="geometry" />
        </mxCell>
        <mxCell id="yLifE5YO-nSygOmaEVbM-92" value="P01" style="shape=partialRectangle;html=1;whiteSpace=wrap;connectable=0;strokeColor=inherit;overflow=hidden;fillColor=none;top=0;left=0;bottom=0;right=0;pointerEvents=1;" parent="yLifE5YO-nSygOmaEVbM-91" vertex="1">
          <mxGeometry width="90" height="30" as="geometry">
            <mxRectangle width="90" height="30" as="alternateBounds" />
          </mxGeometry>
        </mxCell>
        <mxCell id="yLifE5YO-nSygOmaEVbM-93" value="S01" style="shape=partialRectangle;html=1;whiteSpace=wrap;connectable=0;strokeColor=inherit;overflow=hidden;fillColor=none;top=0;left=0;bottom=0;right=0;pointerEvents=1;" parent="yLifE5YO-nSygOmaEVbM-91" vertex="1">
          <mxGeometry x="90" width="90" height="30" as="geometry">
            <mxRectangle width="90" height="30" as="alternateBounds" />
          </mxGeometry>
        </mxCell>
        <mxCell id="yLifE5YO-nSygOmaEVbM-94" style="shape=tableRow;horizontal=0;startSize=0;swimlaneHead=0;swimlaneBody=0;strokeColor=inherit;top=0;left=0;bottom=0;right=0;collapsible=0;dropTarget=0;fillColor=none;points=[[0,0.5],[1,0.5]];portConstraint=eastwest;" parent="yLifE5YO-nSygOmaEVbM-87" vertex="1">
          <mxGeometry y="60" width="180" height="30" as="geometry" />
        </mxCell>
        <mxCell id="yLifE5YO-nSygOmaEVbM-95" value="P01" style="shape=partialRectangle;html=1;whiteSpace=wrap;connectable=0;strokeColor=inherit;overflow=hidden;fillColor=none;top=0;left=0;bottom=0;right=0;pointerEvents=1;" parent="yLifE5YO-nSygOmaEVbM-94" vertex="1">
          <mxGeometry width="90" height="30" as="geometry">
            <mxRectangle width="90" height="30" as="alternateBounds" />
          </mxGeometry>
        </mxCell>
        <mxCell id="yLifE5YO-nSygOmaEVbM-96" value="S02" style="shape=partialRectangle;html=1;whiteSpace=wrap;connectable=0;strokeColor=inherit;overflow=hidden;fillColor=none;top=0;left=0;bottom=0;right=0;pointerEvents=1;" parent="yLifE5YO-nSygOmaEVbM-94" vertex="1">
          <mxGeometry x="90" width="90" height="30" as="geometry">
            <mxRectangle width="90" height="30" as="alternateBounds" />
          </mxGeometry>
        </mxCell>
        <mxCell id="yLifE5YO-nSygOmaEVbM-97" style="shape=tableRow;horizontal=0;startSize=0;swimlaneHead=0;swimlaneBody=0;strokeColor=inherit;top=0;left=0;bottom=0;right=0;collapsible=0;dropTarget=0;fillColor=none;points=[[0,0.5],[1,0.5]];portConstraint=eastwest;" parent="yLifE5YO-nSygOmaEVbM-87" vertex="1">
          <mxGeometry y="90" width="180" height="30" as="geometry" />
        </mxCell>
        <mxCell id="yLifE5YO-nSygOmaEVbM-98" value="P01" style="shape=partialRectangle;html=1;whiteSpace=wrap;connectable=0;strokeColor=inherit;overflow=hidden;fillColor=none;top=0;left=0;bottom=0;right=0;pointerEvents=1;" parent="yLifE5YO-nSygOmaEVbM-97" vertex="1">
          <mxGeometry width="90" height="30" as="geometry">
            <mxRectangle width="90" height="30" as="alternateBounds" />
          </mxGeometry>
        </mxCell>
        <mxCell id="yLifE5YO-nSygOmaEVbM-99" value="S03" style="shape=partialRectangle;html=1;whiteSpace=wrap;connectable=0;strokeColor=inherit;overflow=hidden;fillColor=none;top=0;left=0;bottom=0;right=0;pointerEvents=1;" parent="yLifE5YO-nSygOmaEVbM-97" vertex="1">
          <mxGeometry x="90" width="90" height="30" as="geometry">
            <mxRectangle width="90" height="30" as="alternateBounds" />
          </mxGeometry>
        </mxCell>
        <mxCell id="yLifE5YO-nSygOmaEVbM-100" style="shape=tableRow;horizontal=0;startSize=0;swimlaneHead=0;swimlaneBody=0;strokeColor=inherit;top=0;left=0;bottom=0;right=0;collapsible=0;dropTarget=0;fillColor=none;points=[[0,0.5],[1,0.5]];portConstraint=eastwest;" parent="yLifE5YO-nSygOmaEVbM-87" vertex="1">
          <mxGeometry y="120" width="180" height="30" as="geometry" />
        </mxCell>
        <mxCell id="yLifE5YO-nSygOmaEVbM-101" value="P02" style="shape=partialRectangle;html=1;whiteSpace=wrap;connectable=0;strokeColor=inherit;overflow=hidden;fillColor=none;top=0;left=0;bottom=0;right=0;pointerEvents=1;" parent="yLifE5YO-nSygOmaEVbM-100" vertex="1">
          <mxGeometry width="90" height="30" as="geometry">
            <mxRectangle width="90" height="30" as="alternateBounds" />
          </mxGeometry>
        </mxCell>
        <mxCell id="yLifE5YO-nSygOmaEVbM-102" value="S01" style="shape=partialRectangle;html=1;whiteSpace=wrap;connectable=0;strokeColor=inherit;overflow=hidden;fillColor=none;top=0;left=0;bottom=0;right=0;pointerEvents=1;" parent="yLifE5YO-nSygOmaEVbM-100" vertex="1">
          <mxGeometry x="90" width="90" height="30" as="geometry">
            <mxRectangle width="90" height="30" as="alternateBounds" />
          </mxGeometry>
        </mxCell>
        <mxCell id="yLifE5YO-nSygOmaEVbM-103" value="" style="endArrow=none;html=1;rounded=0;exitX=0.75;exitY=1;exitDx=0;exitDy=0;" parent="1" source="yLifE5YO-nSygOmaEVbM-74" target="yLifE5YO-nSygOmaEVbM-104" edge="1">
          <mxGeometry width="50" height="50" relative="1" as="geometry">
            <mxPoint x="95" y="740" as="sourcePoint" />
            <mxPoint x="150" y="760" as="targetPoint" />
          </mxGeometry>
        </mxCell>
        <mxCell id="yLifE5YO-nSygOmaEVbM-104" value="Score" style="ellipse;whiteSpace=wrap;html=1;" parent="1" vertex="1">
          <mxGeometry x="45" y="820" width="100" height="40" as="geometry" />
        </mxCell>
        <mxCell id="yLifE5YO-nSygOmaEVbM-105" value="1" style="text;html=1;align=center;verticalAlign=middle;whiteSpace=wrap;rounded=0;" parent="1" vertex="1">
          <mxGeometry x="205" y="550" width="60" height="30" as="geometry" />
        </mxCell>
        <mxCell id="yLifE5YO-nSygOmaEVbM-106" value="3" style="text;html=1;align=center;verticalAlign=middle;whiteSpace=wrap;rounded=0;" parent="1" vertex="1">
          <mxGeometry x="25" y="640" width="60" height="30" as="geometry" />
        </mxCell>
        <mxCell id="yLifE5YO-nSygOmaEVbM-108" value="" style="endArrow=none;html=1;rounded=0;entryX=0.143;entryY=0.667;entryDx=0;entryDy=0;entryPerimeter=0;" parent="1" target="yLifE5YO-nSygOmaEVbM-84" edge="1">
          <mxGeometry width="50" height="50" relative="1" as="geometry">
            <mxPoint x="35" y="700" as="sourcePoint" />
            <mxPoint x="85" y="650" as="targetPoint" />
          </mxGeometry>
        </mxCell>
        <mxCell id="yLifE5YO-nSygOmaEVbM-109" value="WORK" style="rounded=0;whiteSpace=wrap;html=1;" parent="1" vertex="1">
          <mxGeometry x="285" y="687.5" width="135" height="35" as="geometry" />
        </mxCell>
        <mxCell id="yLifE5YO-nSygOmaEVbM-111" value="HAS" style="rhombus;whiteSpace=wrap;html=1;" parent="1" vertex="1">
          <mxGeometry x="307.5" y="585" width="55" height="50" as="geometry" />
        </mxCell>
        <mxCell id="DdDtfOs1ssgHzT2AVw8z-1" value="INSTRUCTOR" style="text;html=1;align=center;verticalAlign=middle;whiteSpace=wrap;rounded=0;" parent="1" vertex="1">
          <mxGeometry x="-260" y="1140" width="60" height="30" as="geometry" />
        </mxCell>
        <mxCell id="DdDtfOs1ssgHzT2AVw8z-2" value="" style="shape=table;startSize=0;container=1;collapsible=0;childLayout=tableLayout;" parent="1" vertex="1">
          <mxGeometry x="-270" y="1180" width="220" height="30" as="geometry" />
        </mxCell>
        <mxCell id="DdDtfOs1ssgHzT2AVw8z-3" value="" style="shape=tableRow;horizontal=0;startSize=0;swimlaneHead=0;swimlaneBody=0;strokeColor=inherit;top=0;left=0;bottom=0;right=0;collapsible=0;dropTarget=0;fillColor=none;points=[[0,0.5],[1,0.5]];portConstraint=eastwest;" parent="DdDtfOs1ssgHzT2AVw8z-2" vertex="1">
          <mxGeometry width="220" height="30" as="geometry" />
        </mxCell>
        <mxCell id="DdDtfOs1ssgHzT2AVw8z-4" value="&lt;u&gt;ID&lt;/u&gt;" style="shape=partialRectangle;html=1;whiteSpace=wrap;connectable=0;strokeColor=inherit;overflow=hidden;fillColor=none;top=0;left=0;bottom=0;right=0;pointerEvents=1;" parent="DdDtfOs1ssgHzT2AVw8z-3" vertex="1">
          <mxGeometry width="73" height="30" as="geometry">
            <mxRectangle width="73" height="30" as="alternateBounds" />
          </mxGeometry>
        </mxCell>
        <mxCell id="DdDtfOs1ssgHzT2AVw8z-5" value="Name" style="shape=partialRectangle;html=1;whiteSpace=wrap;connectable=0;strokeColor=inherit;overflow=hidden;fillColor=none;top=0;left=0;bottom=0;right=0;pointerEvents=1;" parent="DdDtfOs1ssgHzT2AVw8z-3" vertex="1">
          <mxGeometry x="73" width="74" height="30" as="geometry">
            <mxRectangle width="74" height="30" as="alternateBounds" />
          </mxGeometry>
        </mxCell>
        <mxCell id="DdDtfOs1ssgHzT2AVw8z-6" value="Email" style="shape=partialRectangle;html=1;whiteSpace=wrap;connectable=0;strokeColor=inherit;overflow=hidden;fillColor=none;top=0;left=0;bottom=0;right=0;pointerEvents=1;" parent="DdDtfOs1ssgHzT2AVw8z-3" vertex="1">
          <mxGeometry x="147" width="73" height="30" as="geometry">
            <mxRectangle width="73" height="30" as="alternateBounds" />
          </mxGeometry>
        </mxCell>
        <mxCell id="DdDtfOs1ssgHzT2AVw8z-7" value="PROJECT" style="text;html=1;align=center;verticalAlign=middle;whiteSpace=wrap;rounded=0;" parent="1" vertex="1">
          <mxGeometry x="-270" y="1240" width="60" height="30" as="geometry" />
        </mxCell>
        <mxCell id="DdDtfOs1ssgHzT2AVw8z-8" value="" style="shape=table;startSize=0;container=1;collapsible=0;childLayout=tableLayout;" parent="1" vertex="1">
          <mxGeometry x="-270" y="1280" width="590" height="30" as="geometry" />
        </mxCell>
        <mxCell id="DdDtfOs1ssgHzT2AVw8z-9" value="" style="shape=tableRow;horizontal=0;startSize=0;swimlaneHead=0;swimlaneBody=0;strokeColor=inherit;top=0;left=0;bottom=0;right=0;collapsible=0;dropTarget=0;fillColor=none;points=[[0,0.5],[1,0.5]];portConstraint=eastwest;" parent="DdDtfOs1ssgHzT2AVw8z-8" vertex="1">
          <mxGeometry width="590" height="30" as="geometry" />
        </mxCell>
        <mxCell id="DdDtfOs1ssgHzT2AVw8z-10" value="&lt;u&gt;ID&lt;/u&gt;" style="shape=partialRectangle;html=1;whiteSpace=wrap;connectable=0;strokeColor=inherit;overflow=hidden;fillColor=none;top=0;left=0;bottom=0;right=0;pointerEvents=1;" parent="DdDtfOs1ssgHzT2AVw8z-9" vertex="1">
          <mxGeometry width="84" height="30" as="geometry">
            <mxRectangle width="84" height="30" as="alternateBounds" />
          </mxGeometry>
        </mxCell>
        <mxCell id="DdDtfOs1ssgHzT2AVw8z-11" value="Name" style="shape=partialRectangle;html=1;whiteSpace=wrap;connectable=0;strokeColor=inherit;overflow=hidden;fillColor=none;top=0;left=0;bottom=0;right=0;pointerEvents=1;" parent="DdDtfOs1ssgHzT2AVw8z-9" vertex="1">
          <mxGeometry x="84" width="85" height="30" as="geometry">
            <mxRectangle width="85" height="30" as="alternateBounds" />
          </mxGeometry>
        </mxCell>
        <mxCell id="DdDtfOs1ssgHzT2AVw8z-12" value="Semester" style="shape=partialRectangle;html=1;whiteSpace=wrap;connectable=0;strokeColor=inherit;overflow=hidden;fillColor=none;top=0;left=0;bottom=0;right=0;pointerEvents=1;" parent="DdDtfOs1ssgHzT2AVw8z-9" vertex="1">
          <mxGeometry x="169" width="85" height="30" as="geometry">
            <mxRectangle width="85" height="30" as="alternateBounds" />
          </mxGeometry>
        </mxCell>
        <mxCell id="DdDtfOs1ssgHzT2AVw8z-19" value="Type" style="shape=partialRectangle;html=1;whiteSpace=wrap;connectable=0;strokeColor=inherit;overflow=hidden;fillColor=none;top=0;left=0;bottom=0;right=0;pointerEvents=1;" parent="DdDtfOs1ssgHzT2AVw8z-9" vertex="1">
          <mxGeometry x="254" width="84" height="30" as="geometry">
            <mxRectangle width="84" height="30" as="alternateBounds" />
          </mxGeometry>
        </mxCell>
        <mxCell id="DdDtfOs1ssgHzT2AVw8z-20" value="StartDate" style="shape=partialRectangle;html=1;whiteSpace=wrap;connectable=0;strokeColor=inherit;overflow=hidden;fillColor=none;top=0;left=0;bottom=0;right=0;pointerEvents=1;" parent="DdDtfOs1ssgHzT2AVw8z-9" vertex="1">
          <mxGeometry x="338" width="84" height="30" as="geometry">
            <mxRectangle width="84" height="30" as="alternateBounds" />
          </mxGeometry>
        </mxCell>
        <mxCell id="Z3QE4s2pLEHPKm1JyapZ-22" value="StudentID" style="shape=partialRectangle;html=1;whiteSpace=wrap;connectable=0;strokeColor=inherit;overflow=hidden;fillColor=none;top=0;left=0;bottom=0;right=0;pointerEvents=1;" parent="DdDtfOs1ssgHzT2AVw8z-9" vertex="1">
          <mxGeometry x="422" width="84" height="30" as="geometry">
            <mxRectangle width="84" height="30" as="alternateBounds" />
          </mxGeometry>
        </mxCell>
        <mxCell id="Z3QE4s2pLEHPKm1JyapZ-56" value="InstructorID" style="shape=partialRectangle;html=1;whiteSpace=wrap;connectable=0;strokeColor=inherit;overflow=hidden;fillColor=none;top=0;left=0;bottom=0;right=0;pointerEvents=1;" parent="DdDtfOs1ssgHzT2AVw8z-9" vertex="1">
          <mxGeometry x="506" width="84" height="30" as="geometry">
            <mxRectangle width="84" height="30" as="alternateBounds" />
          </mxGeometry>
        </mxCell>
        <mxCell id="DdDtfOs1ssgHzT2AVw8z-13" value="StartDate" style="ellipse;whiteSpace=wrap;html=1;" parent="1" vertex="1">
          <mxGeometry x="470" y="520" width="100" height="40" as="geometry" />
        </mxCell>
        <mxCell id="DdDtfOs1ssgHzT2AVw8z-14" value="" style="endArrow=none;html=1;rounded=0;entryX=0.01;entryY=0.37;entryDx=0;entryDy=0;entryPerimeter=0;exitX=1;exitY=0.5;exitDx=0;exitDy=0;" parent="1" source="yLifE5YO-nSygOmaEVbM-2" target="DdDtfOs1ssgHzT2AVw8z-13" edge="1">
          <mxGeometry width="50" height="50" relative="1" as="geometry">
            <mxPoint x="415" y="550" as="sourcePoint" />
            <mxPoint x="465" y="500" as="targetPoint" />
          </mxGeometry>
        </mxCell>
        <mxCell id="DdDtfOs1ssgHzT2AVw8z-21" value="STUDENT" style="text;html=1;align=center;verticalAlign=middle;whiteSpace=wrap;rounded=0;" parent="1" vertex="1">
          <mxGeometry x="-270" y="1340" width="60" height="30" as="geometry" />
        </mxCell>
        <mxCell id="DdDtfOs1ssgHzT2AVw8z-22" value="" style="shape=table;startSize=0;container=1;collapsible=0;childLayout=tableLayout;" parent="1" vertex="1">
          <mxGeometry x="-270" y="1370" width="439" height="30" as="geometry" />
        </mxCell>
        <mxCell id="DdDtfOs1ssgHzT2AVw8z-23" value="" style="shape=tableRow;horizontal=0;startSize=0;swimlaneHead=0;swimlaneBody=0;strokeColor=inherit;top=0;left=0;bottom=0;right=0;collapsible=0;dropTarget=0;fillColor=none;points=[[0,0.5],[1,0.5]];portConstraint=eastwest;" parent="DdDtfOs1ssgHzT2AVw8z-22" vertex="1">
          <mxGeometry width="439" height="30" as="geometry" />
        </mxCell>
        <mxCell id="DdDtfOs1ssgHzT2AVw8z-24" value="&lt;u&gt;ID&lt;/u&gt;" style="shape=partialRectangle;html=1;whiteSpace=wrap;connectable=0;strokeColor=inherit;overflow=hidden;fillColor=none;top=0;left=0;bottom=0;right=0;pointerEvents=1;" parent="DdDtfOs1ssgHzT2AVw8z-23" vertex="1">
          <mxGeometry width="73" height="30" as="geometry">
            <mxRectangle width="73" height="30" as="alternateBounds" />
          </mxGeometry>
        </mxCell>
        <mxCell id="DdDtfOs1ssgHzT2AVw8z-25" value="Name" style="shape=partialRectangle;html=1;whiteSpace=wrap;connectable=0;strokeColor=inherit;overflow=hidden;fillColor=none;top=0;left=0;bottom=0;right=0;pointerEvents=1;" parent="DdDtfOs1ssgHzT2AVw8z-23" vertex="1">
          <mxGeometry x="73" width="74" height="30" as="geometry">
            <mxRectangle width="74" height="30" as="alternateBounds" />
          </mxGeometry>
        </mxCell>
        <mxCell id="DdDtfOs1ssgHzT2AVw8z-26" value="Email" style="shape=partialRectangle;html=1;whiteSpace=wrap;connectable=0;strokeColor=inherit;overflow=hidden;fillColor=none;top=0;left=0;bottom=0;right=0;pointerEvents=1;" parent="DdDtfOs1ssgHzT2AVw8z-23" vertex="1">
          <mxGeometry x="147" width="73" height="30" as="geometry">
            <mxRectangle width="73" height="30" as="alternateBounds" />
          </mxGeometry>
        </mxCell>
        <mxCell id="DdDtfOs1ssgHzT2AVw8z-27" value="Major" style="shape=partialRectangle;html=1;whiteSpace=wrap;connectable=0;strokeColor=inherit;overflow=hidden;fillColor=none;top=0;left=0;bottom=0;right=0;pointerEvents=1;" parent="DdDtfOs1ssgHzT2AVw8z-23" vertex="1">
          <mxGeometry x="220" width="73" height="30" as="geometry">
            <mxRectangle width="73" height="30" as="alternateBounds" />
          </mxGeometry>
        </mxCell>
        <mxCell id="Z3QE4s2pLEHPKm1JyapZ-112" value="Score" style="shape=partialRectangle;html=1;whiteSpace=wrap;connectable=0;strokeColor=inherit;overflow=hidden;fillColor=none;top=0;left=0;bottom=0;right=0;pointerEvents=1;" parent="DdDtfOs1ssgHzT2AVw8z-23" vertex="1">
          <mxGeometry x="293" width="67" height="30" as="geometry">
            <mxRectangle width="67" height="30" as="alternateBounds" />
          </mxGeometry>
        </mxCell>
        <mxCell id="Z3QE4s2pLEHPKm1JyapZ-113" value="Feedback" style="shape=partialRectangle;html=1;whiteSpace=wrap;connectable=0;strokeColor=inherit;overflow=hidden;fillColor=none;top=0;left=0;bottom=0;right=0;pointerEvents=1;" parent="DdDtfOs1ssgHzT2AVw8z-23" vertex="1">
          <mxGeometry x="360" width="79" height="30" as="geometry">
            <mxRectangle width="79" height="30" as="alternateBounds" />
          </mxGeometry>
        </mxCell>
        <mxCell id="Z3QE4s2pLEHPKm1JyapZ-1" value="WORK" style="text;html=1;align=center;verticalAlign=middle;whiteSpace=wrap;rounded=0;" parent="1" vertex="1">
          <mxGeometry x="-270" y="1450" width="60" height="30" as="geometry" />
        </mxCell>
        <mxCell id="Z3QE4s2pLEHPKm1JyapZ-9" value="" style="shape=table;startSize=0;container=1;collapsible=0;childLayout=tableLayout;" parent="1" vertex="1">
          <mxGeometry x="-270" y="1480" width="570" height="30" as="geometry" />
        </mxCell>
        <mxCell id="Z3QE4s2pLEHPKm1JyapZ-10" value="" style="shape=tableRow;horizontal=0;startSize=0;swimlaneHead=0;swimlaneBody=0;strokeColor=inherit;top=0;left=0;bottom=0;right=0;collapsible=0;dropTarget=0;fillColor=none;points=[[0,0.5],[1,0.5]];portConstraint=eastwest;" parent="Z3QE4s2pLEHPKm1JyapZ-9" vertex="1">
          <mxGeometry width="570" height="30" as="geometry" />
        </mxCell>
        <mxCell id="Z3QE4s2pLEHPKm1JyapZ-11" value="&lt;u&gt;Number&lt;/u&gt;" style="shape=partialRectangle;html=1;whiteSpace=wrap;connectable=0;strokeColor=inherit;overflow=hidden;fillColor=none;top=0;left=0;bottom=0;right=0;pointerEvents=1;" parent="Z3QE4s2pLEHPKm1JyapZ-10" vertex="1">
          <mxGeometry width="94" height="30" as="geometry">
            <mxRectangle width="94" height="30" as="alternateBounds" />
          </mxGeometry>
        </mxCell>
        <mxCell id="Z3QE4s2pLEHPKm1JyapZ-12" value="Name" style="shape=partialRectangle;html=1;whiteSpace=wrap;connectable=0;strokeColor=inherit;overflow=hidden;fillColor=none;top=0;left=0;bottom=0;right=0;pointerEvents=1;" parent="Z3QE4s2pLEHPKm1JyapZ-10" vertex="1">
          <mxGeometry x="94" width="97" height="30" as="geometry">
            <mxRectangle width="97" height="30" as="alternateBounds" />
          </mxGeometry>
        </mxCell>
        <mxCell id="Z3QE4s2pLEHPKm1JyapZ-13" value="DayTime" style="shape=partialRectangle;html=1;whiteSpace=wrap;connectable=0;strokeColor=inherit;overflow=hidden;fillColor=none;top=0;left=0;bottom=0;right=0;pointerEvents=1;" parent="Z3QE4s2pLEHPKm1JyapZ-10" vertex="1">
          <mxGeometry x="191" width="95" height="30" as="geometry">
            <mxRectangle width="95" height="30" as="alternateBounds" />
          </mxGeometry>
        </mxCell>
        <mxCell id="Z3QE4s2pLEHPKm1JyapZ-14" value="Point" style="shape=partialRectangle;html=1;whiteSpace=wrap;connectable=0;strokeColor=inherit;overflow=hidden;fillColor=none;top=0;left=0;bottom=0;right=0;pointerEvents=1;" parent="Z3QE4s2pLEHPKm1JyapZ-10" vertex="1">
          <mxGeometry x="286" width="94" height="30" as="geometry">
            <mxRectangle width="94" height="30" as="alternateBounds" />
          </mxGeometry>
        </mxCell>
        <mxCell id="Z3QE4s2pLEHPKm1JyapZ-63" value="ProjectID" style="shape=partialRectangle;html=1;whiteSpace=wrap;connectable=0;strokeColor=inherit;overflow=hidden;fillColor=none;top=0;left=0;bottom=0;right=0;pointerEvents=1;" parent="Z3QE4s2pLEHPKm1JyapZ-10" vertex="1">
          <mxGeometry x="380" width="96" height="30" as="geometry">
            <mxRectangle width="96" height="30" as="alternateBounds" />
          </mxGeometry>
        </mxCell>
        <mxCell id="Z3QE4s2pLEHPKm1JyapZ-62" value="StudentID" style="shape=partialRectangle;html=1;whiteSpace=wrap;connectable=0;strokeColor=inherit;overflow=hidden;fillColor=none;top=0;left=0;bottom=0;right=0;pointerEvents=1;" parent="Z3QE4s2pLEHPKm1JyapZ-10" vertex="1">
          <mxGeometry x="476" width="94" height="30" as="geometry">
            <mxRectangle width="94" height="30" as="alternateBounds" />
          </mxGeometry>
        </mxCell>
        <mxCell id="Z3QE4s2pLEHPKm1JyapZ-18" value="" style="endArrow=none;html=1;rounded=0;exitX=0.771;exitY=-0.027;exitDx=0;exitDy=0;exitPerimeter=0;" parent="1" edge="1">
          <mxGeometry width="50" height="50" relative="1" as="geometry">
            <mxPoint x="179.60000000000002" y="1480" as="sourcePoint" />
            <mxPoint x="180.13" y="1330.81" as="targetPoint" />
          </mxGeometry>
        </mxCell>
        <mxCell id="Z3QE4s2pLEHPKm1JyapZ-19" value="" style="endArrow=none;html=1;rounded=0;" parent="1" edge="1">
          <mxGeometry width="50" height="50" relative="1" as="geometry">
            <mxPoint x="-240" y="1330" as="sourcePoint" />
            <mxPoint x="180" y="1330" as="targetPoint" />
          </mxGeometry>
        </mxCell>
        <mxCell id="Z3QE4s2pLEHPKm1JyapZ-20" value="" style="endArrow=classic;html=1;rounded=0;startFill=0;endFill=1;" parent="1" edge="1">
          <mxGeometry width="50" height="50" relative="1" as="geometry">
            <mxPoint x="-240" y="1330" as="sourcePoint" />
            <mxPoint x="-240" y="1310" as="targetPoint" />
          </mxGeometry>
        </mxCell>
        <mxCell id="Z3QE4s2pLEHPKm1JyapZ-23" value="" style="endArrow=classic;html=1;rounded=0;" parent="1" edge="1">
          <mxGeometry width="50" height="50" relative="1" as="geometry">
            <mxPoint x="-230" y="1420" as="sourcePoint" />
            <mxPoint x="-230" y="1400" as="targetPoint" />
          </mxGeometry>
        </mxCell>
        <mxCell id="Z3QE4s2pLEHPKm1JyapZ-24" value="" style="endArrow=none;html=1;rounded=0;" parent="1" edge="1">
          <mxGeometry width="50" height="50" relative="1" as="geometry">
            <mxPoint x="-230" y="1420" as="sourcePoint" />
            <mxPoint x="200" y="1420" as="targetPoint" />
          </mxGeometry>
        </mxCell>
        <mxCell id="Z3QE4s2pLEHPKm1JyapZ-26" value="M" style="text;html=1;align=center;verticalAlign=middle;whiteSpace=wrap;rounded=0;" parent="1" vertex="1">
          <mxGeometry x="85" y="670" width="60" height="30" as="geometry" />
        </mxCell>
        <mxCell id="Z3QE4s2pLEHPKm1JyapZ-27" value="" style="endArrow=none;html=1;rounded=0;" parent="1" edge="1">
          <mxGeometry width="50" height="50" relative="1" as="geometry">
            <mxPoint x="95" y="705" as="sourcePoint" />
            <mxPoint x="145" y="690" as="targetPoint" />
          </mxGeometry>
        </mxCell>
        <mxCell id="Z3QE4s2pLEHPKm1JyapZ-28" value="DOES" style="rhombus;whiteSpace=wrap;html=1;" parent="1" vertex="1">
          <mxGeometry x="140" y="660" width="80" height="60" as="geometry" />
        </mxCell>
        <mxCell id="Z3QE4s2pLEHPKm1JyapZ-29" value="" style="endArrow=none;html=1;rounded=0;entryX=0;entryY=0.5;entryDx=0;entryDy=0;" parent="1" target="yLifE5YO-nSygOmaEVbM-22" edge="1">
          <mxGeometry width="50" height="50" relative="1" as="geometry">
            <mxPoint x="220" y="690" as="sourcePoint" />
            <mxPoint x="270" y="640" as="targetPoint" />
          </mxGeometry>
        </mxCell>
        <mxCell id="Z3QE4s2pLEHPKm1JyapZ-30" value="N" style="text;html=1;align=center;verticalAlign=middle;whiteSpace=wrap;rounded=0;" parent="1" vertex="1">
          <mxGeometry x="220" y="670" width="60" height="30" as="geometry" />
        </mxCell>
        <mxCell id="Z3QE4s2pLEHPKm1JyapZ-31" value="" style="endArrow=none;html=1;rounded=0;entryX=0.132;entryY=0.636;entryDx=0;entryDy=0;entryPerimeter=0;" parent="1" target="Z3QE4s2pLEHPKm1JyapZ-28" edge="1">
          <mxGeometry width="50" height="50" relative="1" as="geometry">
            <mxPoint x="95" y="715" as="sourcePoint" />
            <mxPoint x="145" y="665" as="targetPoint" />
          </mxGeometry>
        </mxCell>
        <mxCell id="Z3QE4s2pLEHPKm1JyapZ-32" value="" style="endArrow=none;html=1;rounded=0;entryX=-0.011;entryY=0.649;entryDx=0;entryDy=0;entryPerimeter=0;exitX=0.909;exitY=0.612;exitDx=0;exitDy=0;exitPerimeter=0;" parent="1" source="Z3QE4s2pLEHPKm1JyapZ-28" target="yLifE5YO-nSygOmaEVbM-22" edge="1">
          <mxGeometry width="50" height="50" relative="1" as="geometry">
            <mxPoint x="210" y="700" as="sourcePoint" />
            <mxPoint x="255" y="650" as="targetPoint" />
          </mxGeometry>
        </mxCell>
        <mxCell id="Z3QE4s2pLEHPKm1JyapZ-34" value="" style="shape=table;startSize=0;container=1;collapsible=0;childLayout=tableLayout;" parent="1" vertex="1">
          <mxGeometry x="307.5" y="900" width="270" height="150" as="geometry" />
        </mxCell>
        <mxCell id="Z3QE4s2pLEHPKm1JyapZ-35" value="" style="shape=tableRow;horizontal=0;startSize=0;swimlaneHead=0;swimlaneBody=0;strokeColor=inherit;top=0;left=0;bottom=0;right=0;collapsible=0;dropTarget=0;fillColor=none;points=[[0,0.5],[1,0.5]];portConstraint=eastwest;" parent="Z3QE4s2pLEHPKm1JyapZ-34" vertex="1">
          <mxGeometry width="270" height="30" as="geometry" />
        </mxCell>
        <mxCell id="Z3QE4s2pLEHPKm1JyapZ-36" value="STUDENT" style="shape=partialRectangle;html=1;whiteSpace=wrap;connectable=0;strokeColor=inherit;overflow=hidden;fillColor=none;top=0;left=0;bottom=0;right=0;pointerEvents=1;" parent="Z3QE4s2pLEHPKm1JyapZ-35" vertex="1">
          <mxGeometry width="90" height="30" as="geometry">
            <mxRectangle width="90" height="30" as="alternateBounds" />
          </mxGeometry>
        </mxCell>
        <mxCell id="Z3QE4s2pLEHPKm1JyapZ-37" value="WORK" style="shape=partialRectangle;html=1;whiteSpace=wrap;connectable=0;strokeColor=inherit;overflow=hidden;fillColor=none;top=0;left=0;bottom=0;right=0;pointerEvents=1;" parent="Z3QE4s2pLEHPKm1JyapZ-35" vertex="1">
          <mxGeometry x="90" width="90" height="30" as="geometry">
            <mxRectangle width="90" height="30" as="alternateBounds" />
          </mxGeometry>
        </mxCell>
        <mxCell id="Z3QE4s2pLEHPKm1JyapZ-50" value="PROJECT" style="shape=partialRectangle;html=1;whiteSpace=wrap;connectable=0;strokeColor=inherit;overflow=hidden;fillColor=none;top=0;left=0;bottom=0;right=0;pointerEvents=1;" parent="Z3QE4s2pLEHPKm1JyapZ-35" vertex="1">
          <mxGeometry x="180" width="90" height="30" as="geometry">
            <mxRectangle width="90" height="30" as="alternateBounds" />
          </mxGeometry>
        </mxCell>
        <mxCell id="Z3QE4s2pLEHPKm1JyapZ-38" value="" style="shape=tableRow;horizontal=0;startSize=0;swimlaneHead=0;swimlaneBody=0;strokeColor=inherit;top=0;left=0;bottom=0;right=0;collapsible=0;dropTarget=0;fillColor=none;points=[[0,0.5],[1,0.5]];portConstraint=eastwest;" parent="Z3QE4s2pLEHPKm1JyapZ-34" vertex="1">
          <mxGeometry y="30" width="270" height="30" as="geometry" />
        </mxCell>
        <mxCell id="Z3QE4s2pLEHPKm1JyapZ-39" value="S01" style="shape=partialRectangle;html=1;whiteSpace=wrap;connectable=0;strokeColor=inherit;overflow=hidden;fillColor=none;top=0;left=0;bottom=0;right=0;pointerEvents=1;" parent="Z3QE4s2pLEHPKm1JyapZ-38" vertex="1">
          <mxGeometry width="90" height="30" as="geometry">
            <mxRectangle width="90" height="30" as="alternateBounds" />
          </mxGeometry>
        </mxCell>
        <mxCell id="Z3QE4s2pLEHPKm1JyapZ-40" value="W01" style="shape=partialRectangle;html=1;whiteSpace=wrap;connectable=0;strokeColor=inherit;overflow=hidden;fillColor=none;top=0;left=0;bottom=0;right=0;pointerEvents=1;" parent="Z3QE4s2pLEHPKm1JyapZ-38" vertex="1">
          <mxGeometry x="90" width="90" height="30" as="geometry">
            <mxRectangle width="90" height="30" as="alternateBounds" />
          </mxGeometry>
        </mxCell>
        <mxCell id="Z3QE4s2pLEHPKm1JyapZ-51" value="P01" style="shape=partialRectangle;html=1;whiteSpace=wrap;connectable=0;strokeColor=inherit;overflow=hidden;fillColor=none;top=0;left=0;bottom=0;right=0;pointerEvents=1;" parent="Z3QE4s2pLEHPKm1JyapZ-38" vertex="1">
          <mxGeometry x="180" width="90" height="30" as="geometry">
            <mxRectangle width="90" height="30" as="alternateBounds" />
          </mxGeometry>
        </mxCell>
        <mxCell id="Z3QE4s2pLEHPKm1JyapZ-41" style="shape=tableRow;horizontal=0;startSize=0;swimlaneHead=0;swimlaneBody=0;strokeColor=inherit;top=0;left=0;bottom=0;right=0;collapsible=0;dropTarget=0;fillColor=none;points=[[0,0.5],[1,0.5]];portConstraint=eastwest;" parent="Z3QE4s2pLEHPKm1JyapZ-34" vertex="1">
          <mxGeometry y="60" width="270" height="30" as="geometry" />
        </mxCell>
        <mxCell id="Z3QE4s2pLEHPKm1JyapZ-42" value="S01" style="shape=partialRectangle;html=1;whiteSpace=wrap;connectable=0;strokeColor=inherit;overflow=hidden;fillColor=none;top=0;left=0;bottom=0;right=0;pointerEvents=1;" parent="Z3QE4s2pLEHPKm1JyapZ-41" vertex="1">
          <mxGeometry width="90" height="30" as="geometry">
            <mxRectangle width="90" height="30" as="alternateBounds" />
          </mxGeometry>
        </mxCell>
        <mxCell id="Z3QE4s2pLEHPKm1JyapZ-43" value="W02" style="shape=partialRectangle;html=1;whiteSpace=wrap;connectable=0;strokeColor=inherit;overflow=hidden;fillColor=none;top=0;left=0;bottom=0;right=0;pointerEvents=1;" parent="Z3QE4s2pLEHPKm1JyapZ-41" vertex="1">
          <mxGeometry x="90" width="90" height="30" as="geometry">
            <mxRectangle width="90" height="30" as="alternateBounds" />
          </mxGeometry>
        </mxCell>
        <mxCell id="Z3QE4s2pLEHPKm1JyapZ-52" value="P01" style="shape=partialRectangle;html=1;whiteSpace=wrap;connectable=0;strokeColor=inherit;overflow=hidden;fillColor=none;top=0;left=0;bottom=0;right=0;pointerEvents=1;" parent="Z3QE4s2pLEHPKm1JyapZ-41" vertex="1">
          <mxGeometry x="180" width="90" height="30" as="geometry">
            <mxRectangle width="90" height="30" as="alternateBounds" />
          </mxGeometry>
        </mxCell>
        <mxCell id="Z3QE4s2pLEHPKm1JyapZ-44" style="shape=tableRow;horizontal=0;startSize=0;swimlaneHead=0;swimlaneBody=0;strokeColor=inherit;top=0;left=0;bottom=0;right=0;collapsible=0;dropTarget=0;fillColor=none;points=[[0,0.5],[1,0.5]];portConstraint=eastwest;" parent="Z3QE4s2pLEHPKm1JyapZ-34" vertex="1">
          <mxGeometry y="90" width="270" height="30" as="geometry" />
        </mxCell>
        <mxCell id="Z3QE4s2pLEHPKm1JyapZ-45" value="S02" style="shape=partialRectangle;html=1;whiteSpace=wrap;connectable=0;strokeColor=inherit;overflow=hidden;fillColor=none;top=0;left=0;bottom=0;right=0;pointerEvents=1;" parent="Z3QE4s2pLEHPKm1JyapZ-44" vertex="1">
          <mxGeometry width="90" height="30" as="geometry">
            <mxRectangle width="90" height="30" as="alternateBounds" />
          </mxGeometry>
        </mxCell>
        <mxCell id="Z3QE4s2pLEHPKm1JyapZ-46" value="W02" style="shape=partialRectangle;html=1;whiteSpace=wrap;connectable=0;strokeColor=inherit;overflow=hidden;fillColor=none;top=0;left=0;bottom=0;right=0;pointerEvents=1;" parent="Z3QE4s2pLEHPKm1JyapZ-44" vertex="1">
          <mxGeometry x="90" width="90" height="30" as="geometry">
            <mxRectangle width="90" height="30" as="alternateBounds" />
          </mxGeometry>
        </mxCell>
        <mxCell id="Z3QE4s2pLEHPKm1JyapZ-53" value="P01" style="shape=partialRectangle;html=1;whiteSpace=wrap;connectable=0;strokeColor=inherit;overflow=hidden;fillColor=none;top=0;left=0;bottom=0;right=0;pointerEvents=1;" parent="Z3QE4s2pLEHPKm1JyapZ-44" vertex="1">
          <mxGeometry x="180" width="90" height="30" as="geometry">
            <mxRectangle width="90" height="30" as="alternateBounds" />
          </mxGeometry>
        </mxCell>
        <mxCell id="Z3QE4s2pLEHPKm1JyapZ-47" style="shape=tableRow;horizontal=0;startSize=0;swimlaneHead=0;swimlaneBody=0;strokeColor=inherit;top=0;left=0;bottom=0;right=0;collapsible=0;dropTarget=0;fillColor=none;points=[[0,0.5],[1,0.5]];portConstraint=eastwest;" parent="Z3QE4s2pLEHPKm1JyapZ-34" vertex="1">
          <mxGeometry y="120" width="270" height="30" as="geometry" />
        </mxCell>
        <mxCell id="Z3QE4s2pLEHPKm1JyapZ-48" value="S03" style="shape=partialRectangle;html=1;whiteSpace=wrap;connectable=0;strokeColor=inherit;overflow=hidden;fillColor=none;top=0;left=0;bottom=0;right=0;pointerEvents=1;" parent="Z3QE4s2pLEHPKm1JyapZ-47" vertex="1">
          <mxGeometry width="90" height="30" as="geometry">
            <mxRectangle width="90" height="30" as="alternateBounds" />
          </mxGeometry>
        </mxCell>
        <mxCell id="Z3QE4s2pLEHPKm1JyapZ-49" value="W03" style="shape=partialRectangle;html=1;whiteSpace=wrap;connectable=0;strokeColor=inherit;overflow=hidden;fillColor=none;top=0;left=0;bottom=0;right=0;pointerEvents=1;" parent="Z3QE4s2pLEHPKm1JyapZ-47" vertex="1">
          <mxGeometry x="90" width="90" height="30" as="geometry">
            <mxRectangle width="90" height="30" as="alternateBounds" />
          </mxGeometry>
        </mxCell>
        <mxCell id="Z3QE4s2pLEHPKm1JyapZ-54" value="P01" style="shape=partialRectangle;html=1;whiteSpace=wrap;connectable=0;strokeColor=inherit;overflow=hidden;fillColor=none;top=0;left=0;bottom=0;right=0;pointerEvents=1;" parent="Z3QE4s2pLEHPKm1JyapZ-47" vertex="1">
          <mxGeometry x="180" width="90" height="30" as="geometry">
            <mxRectangle width="90" height="30" as="alternateBounds" />
          </mxGeometry>
        </mxCell>
        <mxCell id="Z3QE4s2pLEHPKm1JyapZ-55" value="" style="endArrow=none;html=1;rounded=0;" parent="1" edge="1">
          <mxGeometry width="50" height="50" relative="1" as="geometry">
            <mxPoint x="200" y="1420" as="sourcePoint" />
            <mxPoint x="200" y="1310" as="targetPoint" />
          </mxGeometry>
        </mxCell>
        <mxCell id="Z3QE4s2pLEHPKm1JyapZ-57" value="" style="endArrow=none;html=1;rounded=0;" parent="1" edge="1">
          <mxGeometry width="50" height="50" relative="1" as="geometry">
            <mxPoint x="279.09000000000003" y="1280" as="sourcePoint" />
            <mxPoint x="279.09000000000003" y="1230" as="targetPoint" />
          </mxGeometry>
        </mxCell>
        <mxCell id="Z3QE4s2pLEHPKm1JyapZ-64" value="Feedback" style="ellipse;whiteSpace=wrap;html=1;" parent="1" vertex="1">
          <mxGeometry x="95" y="760" width="100" height="40" as="geometry" />
        </mxCell>
        <mxCell id="Z3QE4s2pLEHPKm1JyapZ-65" value="" style="endArrow=none;html=1;rounded=0;entryX=0.5;entryY=0;entryDx=0;entryDy=0;" parent="1" target="Z3QE4s2pLEHPKm1JyapZ-64" edge="1">
          <mxGeometry width="50" height="50" relative="1" as="geometry">
            <mxPoint x="85" y="740" as="sourcePoint" />
            <mxPoint x="160" y="780" as="targetPoint" />
          </mxGeometry>
        </mxCell>
        <mxCell id="Z3QE4s2pLEHPKm1JyapZ-68" value="" style="endArrow=none;html=1;rounded=0;" parent="1" edge="1">
          <mxGeometry width="50" height="50" relative="1" as="geometry">
            <mxPoint x="-230" y="1230" as="sourcePoint" />
            <mxPoint x="280" y="1230" as="targetPoint" />
          </mxGeometry>
        </mxCell>
        <mxCell id="Z3QE4s2pLEHPKm1JyapZ-69" value="" style="endArrow=classic;html=1;rounded=0;" parent="1" edge="1">
          <mxGeometry width="50" height="50" relative="1" as="geometry">
            <mxPoint x="-230" y="1230" as="sourcePoint" />
            <mxPoint x="-230" y="1210" as="targetPoint" />
          </mxGeometry>
        </mxCell>
        <mxCell id="Z3QE4s2pLEHPKm1JyapZ-70" value="STUDENT Does WORK" style="text;html=1;align=center;verticalAlign=middle;whiteSpace=wrap;rounded=0;" parent="1" vertex="1">
          <mxGeometry x="-320" y="1550" width="220" height="30" as="geometry" />
        </mxCell>
        <mxCell id="Z3QE4s2pLEHPKm1JyapZ-71" value="" style="endArrow=none;html=1;rounded=0;" parent="1" edge="1">
          <mxGeometry width="50" height="50" relative="1" as="geometry">
            <mxPoint x="470" y="590" as="sourcePoint" />
            <mxPoint x="425" y="550" as="targetPoint" />
          </mxGeometry>
        </mxCell>
        <mxCell id="Z3QE4s2pLEHPKm1JyapZ-72" value="NumberofStudent" style="ellipse;whiteSpace=wrap;html=1;dashed=1;dashPattern=8 8;" parent="1" vertex="1">
          <mxGeometry x="450" y="580" width="110" height="40" as="geometry" />
        </mxCell>
        <mxCell id="Z3QE4s2pLEHPKm1JyapZ-73" value="" style="shape=table;startSize=0;container=1;collapsible=0;childLayout=tableLayout;" parent="1" vertex="1">
          <mxGeometry x="-270" y="1590" width="280" height="30" as="geometry" />
        </mxCell>
        <mxCell id="Z3QE4s2pLEHPKm1JyapZ-74" value="" style="shape=tableRow;horizontal=0;startSize=0;swimlaneHead=0;swimlaneBody=0;strokeColor=inherit;top=0;left=0;bottom=0;right=0;collapsible=0;dropTarget=0;fillColor=none;points=[[0,0.5],[1,0.5]];portConstraint=eastwest;" parent="Z3QE4s2pLEHPKm1JyapZ-73" vertex="1">
          <mxGeometry width="280" height="30" as="geometry" />
        </mxCell>
        <mxCell id="Z3QE4s2pLEHPKm1JyapZ-75" value="&lt;u&gt;ID&lt;/u&gt;" style="shape=partialRectangle;html=1;whiteSpace=wrap;connectable=0;strokeColor=inherit;overflow=hidden;fillColor=none;top=0;left=0;bottom=0;right=0;pointerEvents=1;" parent="Z3QE4s2pLEHPKm1JyapZ-74" vertex="1">
          <mxGeometry width="139" height="30" as="geometry">
            <mxRectangle width="139" height="30" as="alternateBounds" />
          </mxGeometry>
        </mxCell>
        <mxCell id="Z3QE4s2pLEHPKm1JyapZ-76" value="&lt;u&gt;Number&lt;/u&gt;" style="shape=partialRectangle;html=1;whiteSpace=wrap;connectable=0;strokeColor=inherit;overflow=hidden;fillColor=none;top=0;left=0;bottom=0;right=0;pointerEvents=1;" parent="Z3QE4s2pLEHPKm1JyapZ-74" vertex="1">
          <mxGeometry x="139" width="141" height="30" as="geometry">
            <mxRectangle width="141" height="30" as="alternateBounds" />
          </mxGeometry>
        </mxCell>
        <mxCell id="Z3QE4s2pLEHPKm1JyapZ-80" value="" style="endArrow=classic;html=1;rounded=0;" parent="1" edge="1">
          <mxGeometry width="50" height="50" relative="1" as="geometry">
            <mxPoint x="-230" y="1540" as="sourcePoint" />
            <mxPoint x="-230" y="1510" as="targetPoint" />
          </mxGeometry>
        </mxCell>
        <mxCell id="Z3QE4s2pLEHPKm1JyapZ-81" value="" style="endArrow=none;html=1;rounded=0;" parent="1" edge="1">
          <mxGeometry width="50" height="50" relative="1" as="geometry">
            <mxPoint x="-230" y="1540" as="sourcePoint" />
            <mxPoint x="80" y="1540" as="targetPoint" />
          </mxGeometry>
        </mxCell>
        <mxCell id="Z3QE4s2pLEHPKm1JyapZ-82" value="" style="endArrow=none;html=1;rounded=0;" parent="1" edge="1">
          <mxGeometry width="50" height="50" relative="1" as="geometry">
            <mxPoint x="80" y="1640" as="sourcePoint" />
            <mxPoint x="80.10000000000001" y="1540" as="targetPoint" />
          </mxGeometry>
        </mxCell>
        <mxCell id="Z3QE4s2pLEHPKm1JyapZ-83" value="" style="endArrow=none;html=1;rounded=0;" parent="1" edge="1">
          <mxGeometry width="50" height="50" relative="1" as="geometry">
            <mxPoint x="-240" y="1440" as="sourcePoint" />
            <mxPoint x="320" y="1440" as="targetPoint" />
          </mxGeometry>
        </mxCell>
        <mxCell id="Z3QE4s2pLEHPKm1JyapZ-84" value="" style="endArrow=none;html=1;rounded=0;" parent="1" edge="1">
          <mxGeometry width="50" height="50" relative="1" as="geometry">
            <mxPoint x="320.48" y="1660" as="sourcePoint" />
            <mxPoint x="320" y="1440" as="targetPoint" />
          </mxGeometry>
        </mxCell>
        <mxCell id="Z3QE4s2pLEHPKm1JyapZ-86" value="" style="endArrow=none;html=1;rounded=0;" parent="1" edge="1">
          <mxGeometry width="50" height="50" relative="1" as="geometry">
            <mxPoint x="-200" y="1660" as="sourcePoint" />
            <mxPoint x="320" y="1660" as="targetPoint" />
          </mxGeometry>
        </mxCell>
        <mxCell id="Z3QE4s2pLEHPKm1JyapZ-87" value="" style="endArrow=none;html=1;rounded=0;" parent="1" edge="1">
          <mxGeometry width="50" height="50" relative="1" as="geometry">
            <mxPoint x="-200" y="1660" as="sourcePoint" />
            <mxPoint x="-200" y="1620" as="targetPoint" />
          </mxGeometry>
        </mxCell>
        <mxCell id="Z3QE4s2pLEHPKm1JyapZ-88" value="" style="endArrow=none;html=1;rounded=0;" parent="1" edge="1">
          <mxGeometry width="50" height="50" relative="1" as="geometry">
            <mxPoint x="-80" y="1640" as="sourcePoint" />
            <mxPoint x="80" y="1640" as="targetPoint" />
          </mxGeometry>
        </mxCell>
        <mxCell id="Z3QE4s2pLEHPKm1JyapZ-89" value="" style="endArrow=none;html=1;rounded=0;startFill=0;" parent="1" edge="1">
          <mxGeometry width="50" height="50" relative="1" as="geometry">
            <mxPoint x="-80" y="1640" as="sourcePoint" />
            <mxPoint x="-80" y="1620" as="targetPoint" />
          </mxGeometry>
        </mxCell>
        <mxCell id="Z3QE4s2pLEHPKm1JyapZ-90" value="" style="endArrow=classic;html=1;rounded=0;" parent="1" edge="1">
          <mxGeometry width="50" height="50" relative="1" as="geometry">
            <mxPoint x="-240" y="1440" as="sourcePoint" />
            <mxPoint x="-240.36" y="1400" as="targetPoint" />
          </mxGeometry>
        </mxCell>
        <mxCell id="Z3QE4s2pLEHPKm1JyapZ-91" value="" style="endArrow=classic;html=1;rounded=0;" parent="1" edge="1">
          <mxGeometry width="50" height="50" relative="1" as="geometry">
            <mxPoint x="-250" y="1450" as="sourcePoint" />
            <mxPoint x="-250" y="1400" as="targetPoint" />
          </mxGeometry>
        </mxCell>
        <mxCell id="Z3QE4s2pLEHPKm1JyapZ-92" value="" style="endArrow=none;html=1;rounded=0;" parent="1" edge="1">
          <mxGeometry width="50" height="50" relative="1" as="geometry">
            <mxPoint x="-250" y="1450" as="sourcePoint" />
            <mxPoint x="240" y="1450" as="targetPoint" />
          </mxGeometry>
        </mxCell>
        <mxCell id="Z3QE4s2pLEHPKm1JyapZ-93" value="" style="endArrow=none;html=1;rounded=0;" parent="1" edge="1">
          <mxGeometry width="50" height="50" relative="1" as="geometry">
            <mxPoint x="239.6" y="1480" as="sourcePoint" />
            <mxPoint x="239.6" y="1450" as="targetPoint" />
          </mxGeometry>
        </mxCell>
        <mxCell id="Z3QE4s2pLEHPKm1JyapZ-94" value="PROJECT has WORK" style="text;html=1;align=center;verticalAlign=middle;whiteSpace=wrap;rounded=0;" parent="1" vertex="1">
          <mxGeometry x="-320" y="1680" width="220" height="30" as="geometry" />
        </mxCell>
        <mxCell id="Z3QE4s2pLEHPKm1JyapZ-97" value="" style="shape=table;startSize=0;container=1;collapsible=0;childLayout=tableLayout;" parent="1" vertex="1">
          <mxGeometry x="-270" y="1720" width="280" height="30" as="geometry" />
        </mxCell>
        <mxCell id="Z3QE4s2pLEHPKm1JyapZ-98" value="" style="shape=tableRow;horizontal=0;startSize=0;swimlaneHead=0;swimlaneBody=0;strokeColor=inherit;top=0;left=0;bottom=0;right=0;collapsible=0;dropTarget=0;fillColor=none;points=[[0,0.5],[1,0.5]];portConstraint=eastwest;" parent="Z3QE4s2pLEHPKm1JyapZ-97" vertex="1">
          <mxGeometry width="280" height="30" as="geometry" />
        </mxCell>
        <mxCell id="Z3QE4s2pLEHPKm1JyapZ-99" value="&lt;u&gt;ProjectID&lt;/u&gt;" style="shape=partialRectangle;html=1;whiteSpace=wrap;connectable=0;strokeColor=inherit;overflow=hidden;fillColor=none;top=0;left=0;bottom=0;right=0;pointerEvents=1;" parent="Z3QE4s2pLEHPKm1JyapZ-98" vertex="1">
          <mxGeometry width="139" height="30" as="geometry">
            <mxRectangle width="139" height="30" as="alternateBounds" />
          </mxGeometry>
        </mxCell>
        <mxCell id="Z3QE4s2pLEHPKm1JyapZ-100" value="&lt;u&gt;Number&lt;/u&gt;" style="shape=partialRectangle;html=1;whiteSpace=wrap;connectable=0;strokeColor=inherit;overflow=hidden;fillColor=none;top=0;left=0;bottom=0;right=0;pointerEvents=1;" parent="Z3QE4s2pLEHPKm1JyapZ-98" vertex="1">
          <mxGeometry x="139" width="141" height="30" as="geometry">
            <mxRectangle width="141" height="30" as="alternateBounds" />
          </mxGeometry>
        </mxCell>
        <mxCell id="Z3QE4s2pLEHPKm1JyapZ-101" value="" style="endArrow=classic;html=1;rounded=0;startFill=0;endFill=1;exitX=0.333;exitY=0;exitDx=0;exitDy=0;exitPerimeter=0;" parent="1" source="DdDtfOs1ssgHzT2AVw8z-21" edge="1">
          <mxGeometry width="50" height="50" relative="1" as="geometry">
            <mxPoint x="-250" y="1330" as="sourcePoint" />
            <mxPoint x="-250" y="1310" as="targetPoint" />
          </mxGeometry>
        </mxCell>
        <mxCell id="Z3QE4s2pLEHPKm1JyapZ-102" value="" style="endArrow=none;html=1;rounded=0;" parent="1" edge="1">
          <mxGeometry width="50" height="50" relative="1" as="geometry">
            <mxPoint x="-250" y="1340" as="sourcePoint" />
            <mxPoint x="360" y="1340" as="targetPoint" />
          </mxGeometry>
        </mxCell>
        <mxCell id="Z3QE4s2pLEHPKm1JyapZ-103" value="" style="endArrow=none;html=1;rounded=0;" parent="1" edge="1">
          <mxGeometry width="50" height="50" relative="1" as="geometry">
            <mxPoint x="359.6" y="1780" as="sourcePoint" />
            <mxPoint x="359.6" y="1340" as="targetPoint" />
          </mxGeometry>
        </mxCell>
        <mxCell id="Z3QE4s2pLEHPKm1JyapZ-104" value="" style="endArrow=none;html=1;rounded=0;" parent="1" edge="1">
          <mxGeometry width="50" height="50" relative="1" as="geometry">
            <mxPoint x="-200" y="1780" as="sourcePoint" />
            <mxPoint x="360" y="1780" as="targetPoint" />
          </mxGeometry>
        </mxCell>
        <mxCell id="Z3QE4s2pLEHPKm1JyapZ-105" value="" style="endArrow=none;html=1;rounded=0;" parent="1" edge="1">
          <mxGeometry width="50" height="50" relative="1" as="geometry">
            <mxPoint x="-200" y="1780" as="sourcePoint" />
            <mxPoint x="-200" y="1750" as="targetPoint" />
          </mxGeometry>
        </mxCell>
        <mxCell id="Z3QE4s2pLEHPKm1JyapZ-106" value="" style="endArrow=classic;html=1;rounded=0;startFill=0;endFill=1;exitX=0.361;exitY=0.04;exitDx=0;exitDy=0;exitPerimeter=0;" parent="1" source="Z3QE4s2pLEHPKm1JyapZ-70" edge="1">
          <mxGeometry width="50" height="50" relative="1" as="geometry">
            <mxPoint x="-243" y="1547" as="sourcePoint" />
            <mxPoint x="-240.45" y="1510" as="targetPoint" />
          </mxGeometry>
        </mxCell>
        <mxCell id="Z3QE4s2pLEHPKm1JyapZ-108" value="" style="endArrow=none;html=1;rounded=0;" parent="1" edge="1">
          <mxGeometry width="50" height="50" relative="1" as="geometry">
            <mxPoint x="-240" y="1550" as="sourcePoint" />
            <mxPoint x="160" y="1550" as="targetPoint" />
          </mxGeometry>
        </mxCell>
        <mxCell id="Z3QE4s2pLEHPKm1JyapZ-109" value="" style="endArrow=none;html=1;rounded=0;" parent="1" edge="1">
          <mxGeometry width="50" height="50" relative="1" as="geometry">
            <mxPoint x="160" y="1760" as="sourcePoint" />
            <mxPoint x="160" y="1550" as="targetPoint" />
          </mxGeometry>
        </mxCell>
        <mxCell id="Z3QE4s2pLEHPKm1JyapZ-110" value="" style="endArrow=none;html=1;rounded=0;" parent="1" edge="1">
          <mxGeometry width="50" height="50" relative="1" as="geometry">
            <mxPoint x="-70" y="1760" as="sourcePoint" />
            <mxPoint x="160" y="1760" as="targetPoint" />
          </mxGeometry>
        </mxCell>
        <mxCell id="Z3QE4s2pLEHPKm1JyapZ-111" value="" style="endArrow=none;html=1;rounded=0;startFill=0;" parent="1" edge="1">
          <mxGeometry width="50" height="50" relative="1" as="geometry">
            <mxPoint x="-70" y="1750" as="sourcePoint" />
            <mxPoint x="-70" y="1760" as="targetPoint" />
          </mxGeometry>
        </mxCell>
      </root>
    </mxGraphModel>
  </diagram>
</mxfile>
